#!OML:ASF H:\LiuWeirdWalks\Patient Classification 1\Patient 1\Session 1\male.ASF
:FULLY-SPECIFIED
:DEGREES
294
root 1.35607 17.6928 26.6993 -1.62256 8.92388 -0.77792
lowerback 5.11151 -3.65555 -7.48721
upperback 1.6388 -5.2018 5.18737
thorax 0.0145019 -2.70184 9.93514
lowerneck -21.2703 3.13587 7.72505
upperneck 19.8477 4.07783 -9.08774
head 10.2028 1.39373 -3.91467
rclavicle -3.97569e-015 9.54166e-015
rhumerus -51.5262 -19.3226 -55.1525
rradius 6.81967
rwrist 33.8727
rhand -13.858 -4.91474
rfingers 7.12502
rthumb 12.266 -34.535
lclavicle -3.97569e-015 9.54166e-015
lhumerus -18.7932 7.16018 80.7158
lradius 54.4991
lwrist 29.8795
lhand -24.8936 -4.61433
lfingers 7.12502
lthumb 1.61436 25.3593
rfemur -21.4162 -4.73677 23.1134
rtibia 38.4103
rfoot -8.41673 -18.5667
rtoes -0.458821
lfemur -1.58769 -2.96248 -15.4669
ltibia 61.6646
lfoot 14.2006 -0.766477
ltoes -13.616
295
root 1.3409 17.7245 27.0013 -1.78811 8.82622 -1.68893
lowerback 4.76651 -4.5307 -8.62649
upperback 2.18645 -6.42201 6.13613
thorax 1.31889 -3.4541 11.5935
lowerneck -21.148 4.44832 9.3337
upperneck 19.1252 5.71223 -10.5577
head 10.184 2.1051 -4.45254
rclavicle -2.94201e-014 -5.56597e-015
rhumerus -47.2955 -17.2281 -57.7106
rradius 6.4734
rwrist 33.4954
rhand -13.8898 -4.85573
rfingers 7.12502
rthumb 12.2353 -34.4778
lclavicle -2.94201e-014 -5.56597e-015
lhumerus -19.5576 10.5289 80.0203
lradius 53.7814
lwrist 28.7521
lhand -25.2621 -4.55209
lfingers 7.12502
lthumb 1.25839 25.4239
rfemur -19.866 -4.14869 24.2854
rtibia 37.7091
rfoot -8.93572 -19.2723
rtoes -0.743089
lfemur -3.6275 -2.49351 -14.2474
ltibia 63.5977
lfoot 11.8157 0.253752
ltoes -13.3694
296
root 1.3249 17.7553 27.3009 -1.92767 8.71119 -2.64152
lowerback 4.30178 -5.72885 -10.3128
upperback 2.93201 -8.11344 7.21805
thorax 3.27138 -4.56643 13.6665
lowerneck -20.695 6.21113 11.5655
upperneck 17.9823 7.90939 -12.5862
head 10.1452 3.07506 -5.19539
rclavicle 3.95581e-014 -6.36111e-014
rhumerus -42.198 -14.2052 -60.6833
rradius 6.04718
rwrist 33.0593
rhand -14.0128 -4.8041
rfingers 7.12502
rthumb 12.1168 -34.4332
lclavicle 3.95581e-014 -6.36111e-014
lhumerus -20.3557 14.991 79.0562
lradius 53.0149
lwrist 27.5692
lhand -25.4912 -4.5361
lfingers 7.12502
lthumb 1.03718 25.4411
rfemur -18.2954 -3.56949 25.528
rtibia 36.8623
rfoot -9.37646 -19.9378
rtoes -1.09589
lfemur -5.68412 -1.98584 -12.9856
ltibia 65.242
lfoot 9.51288 1.13554
ltoes -13.2194
297
root 1.30943 17.7837 27.5986 -2.06123 8.5654 -3.58779
lowerback 3.86262 -6.8209 -11.839
upperback 3.67335 -9.67359 8.16274
thorax 5.32227 -5.68145 15.4583
lowerneck -20.0865 7.80839 13.6171
upperneck 16.8165 9.92862 -14.4985
head 10.1369 3.97614 -5.88377
rclavicle 8.60738e-014 -3.02153e-014
rhumerus -37.5215 -11.1904 -63.2817
rradius 5.83667
rwrist 32.5463
rhand -14.1413 -4.71882
rfingers 7.12502
rthumb 11.9929 -34.3552
lclavicle 8.60738e-014 -3.02153e-014
lhumerus -21.127 19.1243 78.2165
lradius 52.1
lwrist 26.4116
lhand -25.5828 -4.53787
lfingers 7.12502
lthumb 0.948641 25.4398
rfemur -16.7001 -3.0425 26.78
rtibia 35.9236
rfoot -9.76434 -20.5392
rtoes -1.48993
lfemur -7.7069 -1.43888 -11.7554
ltibia 66.5934
lfoot 7.23193 1.86711
ltoes -13.2203
298
root 1.29503 17.8085 27.8956 -2.21367 8.36197 -4.48927
lowerback 3.43194 -7.74528 -13.0957
upperback 4.37698 -11.0077 8.90245
thorax 7.32543 -6.711 16.8344
lowerneck -19.3207 9.15754 15.4563
upperneck 15.6826 11.6534 -16.1955
head 10.1246 4.76392 -6.49914
rclavicle -5.40694e-014 1.27222e-014
rhumerus -33.4588 -8.41177 -65.5022
rradius 5.88943
rwrist 31.9391
rhand -14.2684 -4.5938
rfingers 7.12502
rthumb 11.8703 -34.2373
lclavicle -5.40694e-014 1.27222e-014
lhumerus -21.9083 22.6734 77.4704
lradius 51.059
lwrist 25.2978
lhand -25.5272 -4.42922
lfingers 7.12502
lthumb 1.00238 25.5482
rfemur -15.0586 -2.53877 27.995
rtibia 34.9328
rfoot -10.1272 -21.0792
rtoes -1.91238
lfemur -9.64711 -0.84524 -10.6108
ltibia 67.6548
lfoot 5.09159 2.44776
ltoes -13.0986
